<svg version="1" xmlns="http://www.w3.org/2000/svg" width="206.667" height="206.667" viewBox="0 0 155.000000 155.000000"><path d="M84 4.6c-13.4 4-21 20.7-15.3 33.5 2.1 4.8 8.2 11.4 11.4 12.4 1.1.4 1.9.9 1.9 1.3 0 1.4-4 24.5-4.2 24.8-.2.1-3.9.5-8.3.9-4.4.3-9.1.8-10.5 1-1.4.2-4.5.7-6.9 1-6.5.9-21.6 6.1-28.4 9.7C12.2 95.4 3 106.5 3 114.3c0 4.6 3.7 12 7.3 14.4 3.5 2.4 8 3.5 10.3 2.6 1.8-.7 1.8-3.7 0-5.3-2-1.6-3.9-7.7-3.8-11.7.6-14.8 22.9-27.1 54.1-29.8l6.4-.5-.7 4.7c-.3 2.5-.7 4.7-.9 4.8-.1.2-3.2.5-6.8.8-23.4 2-40.8 13.8-35.8 24.3 6.8 14.1 46.2 19.6 72.1 10.2 11.4-4.2 18.8-12.1 17.2-18.3-.7-2.7-5.7-7.5-7.9-7.5-1.7 0-2.6 2.6-1.9 5.6 1.1 4.3-.4 7.2-5 9.9-5.2 3-13.9 6.2-19.3 7.1-10.4 1.7-25.1.6-32.4-2.4-4.8-1.9-8.9-6.2-8.9-9.2 0-5.3 8.5-11.5 19.1-13.9 7.2-1.7 9-1.5 8.5 1.1-.3 1.3-.5 3.1-.5 4.1-.1 1.1-1.7 2.5-4.5 3.6-9.2 4-6 9.8 5.9 10.6 7.7.5 15.5-2.6 15.5-6.2 0-.7-1.6-2.3-3.6-3.5-3.2-1.9-3.5-2.4-3-5.7.3-2 .5-3.9.6-4.2 0-.4 2.7-.9 6-1.1 10.4-.7 9.6-4.3-1-5-4-.3-4-.3-3.4-3.8 1.1-6.6.3-6.3 13.4-3.9 26.9 5 41.7 18.8 35.6 33.3-3.2 7.8-18.1 17.5-32.1 21-11.8 3-30.4 3.8-47.2 2.2-6.7-.7-7.3-.6-7.3 1.1 0 2 2.4 4.5 5.4 5.6 5.2 2 26.1 2.7 38.8 1.3 17.8-1.9 37.3-9.8 47.8-19.3 24-21.5 1.6-47.2-46-52.8-5.9-.7-7.3-1.2-6.6-2.3.2-.4.7-3.1 1.1-6.1.4-3 .8-6.1 1-7 .1-.9.6-3.5 1-5.9.6-3.6 1-4.2 3.1-4.2 6.6 0 14.8-5.7 18.8-13C124 20.5 105.4-1.9 84 4.6z"/></svg>